<svg width="117" height="76" viewBox="0 0 117 76" fill="none" xmlns="http://www.w3.org/2000/svg">
<rect y="6" width="76" height="56" rx="6" fill="#6B789A"/>
<rect x="3" y="8" width="70" height="48" rx="6" fill="url(#paint0_linear_66_11)"/>
<path d="M10.792 27.6C11.808 27.6 12.564 27.776 13.06 28.128C13.556 28.48 13.804 29.12 13.804 30.048C13.804 30.824 13.564 31.472 13.084 31.992C12.604 32.504 11.836 32.76 10.78 32.76C10.436 32.76 10.164 32.756 9.964 32.748L9.94 34.86L10.816 34.956C10.816 35.308 10.724 35.656 10.54 36H7.576L7.468 35.34C7.884 35.172 8.22 35.056 8.476 34.992C8.476 34.968 8.44 32.852 8.368 28.644C8.24 28.612 7.908 28.508 7.372 28.332L7.468 27.6H10.792ZM10.528 31.62C11.064 31.612 11.48 31.464 11.776 31.176C12.072 30.888 12.22 30.516 12.22 30.06C12.22 29.604 12.088 29.28 11.824 29.088C11.568 28.888 11.164 28.788 10.612 28.788C10.396 28.788 10.192 28.792 10 28.8C9.984 30.064 9.976 31.008 9.976 31.632L10.528 31.62ZM17.8143 31.056C17.7983 31.016 17.7183 30.996 17.5743 30.996C17.4303 30.996 17.1823 31.104 16.8303 31.32C16.7983 32.888 16.7783 34.064 16.7703 34.848L17.7063 34.968C17.7063 35.312 17.6143 35.656 17.4303 36H14.4423L14.3343 35.34C14.8303 35.156 15.1903 35.036 15.4143 34.98L15.2823 31.092C14.8663 31.06 14.5183 31 14.2383 30.912L14.3223 30.048C14.5383 29.952 15.3183 29.888 16.6623 29.856C16.7343 29.928 16.7703 30.068 16.7703 30.276C17.4743 29.932 17.9183 29.76 18.1023 29.76C18.2943 29.76 18.5263 29.808 18.7983 29.904C19.0783 29.992 19.2903 30.088 19.4343 30.192V30.396C19.4343 31.052 19.3543 31.66 19.1943 32.22C19.0583 32.276 18.8783 32.304 18.6543 32.304C18.4303 32.304 18.2223 32.292 18.0303 32.268C18.0063 32.164 17.9343 31.76 17.8143 31.056ZM22.833 30.72C22.545 30.72 22.217 30.792 21.849 30.936C21.745 31.096 21.645 31.38 21.549 31.788C21.461 32.188 21.417 32.592 21.417 33C21.417 33.752 21.529 34.288 21.753 34.608C21.977 34.92 22.337 35.076 22.833 35.076C23.337 35.076 23.701 34.92 23.925 34.608C24.149 34.288 24.261 33.744 24.261 32.976C24.261 32.2 24.145 31.632 23.913 31.272C23.689 30.904 23.329 30.72 22.833 30.72ZM22.833 29.76C23.769 29.76 24.521 30.048 25.089 30.624C25.665 31.192 25.953 31.988 25.953 33.012C25.953 34.028 25.669 34.804 25.101 35.34C24.533 35.876 23.777 36.144 22.833 36.144C21.889 36.144 21.133 35.876 20.565 35.34C20.005 34.804 19.725 34.028 19.725 33.012C19.725 31.988 20.009 31.192 20.577 30.624C21.145 30.048 21.897 29.76 22.833 29.76ZM30.958 33.924C30.694 34.092 30.414 34.216 30.118 34.296C29.822 34.368 29.534 34.404 29.254 34.404C28.982 34.404 28.742 34.376 28.534 34.32C28.446 34.528 28.362 34.684 28.282 34.788C28.346 34.884 29.018 34.932 30.298 34.932C31.098 34.932 31.662 35.056 31.99 35.304C32.142 35.408 32.274 35.572 32.386 35.796C32.506 36.02 32.566 36.308 32.566 36.66C32.566 37.02 32.39 37.38 32.038 37.74C31.686 38.1 31.246 38.384 30.718 38.592C30.19 38.8 29.666 38.904 29.146 38.904C28.282 38.904 27.582 38.732 27.046 38.388C26.51 38.052 26.242 37.632 26.242 37.128C26.242 37.032 26.382 36.796 26.662 36.42C26.942 36.052 27.126 35.84 27.214 35.784C27.134 35.744 26.994 35.612 26.794 35.388C26.594 35.156 26.482 34.992 26.458 34.896C26.562 34.608 26.882 34.248 27.418 33.816C26.794 33.44 26.482 32.808 26.482 31.92C26.482 31.216 26.722 30.68 27.202 30.312C27.69 29.944 28.33 29.76 29.122 29.76C29.922 29.76 30.526 29.868 30.934 30.084C31.614 29.964 32.094 29.904 32.374 29.904C32.662 29.904 32.85 29.908 32.938 29.916C32.938 30.108 32.89 30.328 32.794 30.576C32.706 30.816 32.622 30.984 32.542 31.08L31.51 30.84C31.71 31.128 31.81 31.5 31.81 31.956C31.81 32.412 31.734 32.812 31.582 33.156C31.43 33.492 31.222 33.748 30.958 33.924ZM30.898 37.356C30.954 37.204 30.982 37.028 30.982 36.828C30.982 36.628 30.894 36.48 30.718 36.384C30.542 36.296 30.334 36.252 30.094 36.252C29.158 36.252 28.538 36.244 28.234 36.228C28.17 36.364 28.09 36.556 27.994 36.804C27.898 37.06 27.85 37.212 27.85 37.26C27.85 37.308 27.882 37.376 27.946 37.464C28.01 37.56 28.146 37.66 28.354 37.764C28.57 37.868 28.83 37.92 29.134 37.92C29.446 37.92 29.81 37.848 30.226 37.704C30.642 37.56 30.866 37.444 30.898 37.356ZM29.926 30.984C29.742 30.768 29.482 30.66 29.146 30.66C28.81 30.66 28.546 30.768 28.354 30.984C28.17 31.2 28.078 31.516 28.078 31.932C28.078 32.34 28.174 32.66 28.366 32.892C28.558 33.124 28.818 33.24 29.146 33.24C29.858 33.24 30.214 32.8 30.214 31.92C30.214 31.512 30.118 31.2 29.926 30.984ZM38.4115 30.312L38.0395 30.3L37.6915 28.86C37.2275 28.78 36.8795 28.74 36.6475 28.74C36.1915 28.74 35.6795 28.832 35.1115 29.016C34.9435 29.328 34.8115 29.728 34.7155 30.216C34.6195 30.704 34.5715 31.164 34.5715 31.596C34.5715 33.804 35.2075 34.908 36.4795 34.908C37.0235 34.908 37.4555 34.828 37.7755 34.668L38.0275 33.204C38.5315 33.204 38.9155 33.232 39.1795 33.288C39.3075 34.16 39.3715 34.868 39.3715 35.412C39.1795 35.556 38.7915 35.716 38.2075 35.892C37.6315 36.068 37.0635 36.156 36.5035 36.156C34.1195 36.156 32.9275 34.684 32.9275 31.74C32.9275 30.34 33.2155 29.276 33.7915 28.548C34.3755 27.82 35.3035 27.456 36.5755 27.456C37.2075 27.456 37.7675 27.548 38.2555 27.732C38.6875 27.892 39.0555 28.068 39.3595 28.26C39.3595 28.804 39.2995 29.46 39.1795 30.228C38.9555 30.284 38.6995 30.312 38.4115 30.312ZM43.3413 34.968C43.6133 34.968 44.1653 34.78 44.9973 34.404C45.1733 34.66 45.3053 34.956 45.3933 35.292C44.9533 35.564 44.5213 35.776 44.0973 35.928C43.6813 36.072 43.3853 36.144 43.2093 36.144C42.2413 36.144 41.5053 35.876 41.0013 35.34C40.5053 34.804 40.2573 34.044 40.2573 33.06C40.2573 32.068 40.5053 31.272 41.0013 30.672C41.4973 30.064 42.2333 29.76 43.2093 29.76C43.9853 29.76 44.5773 30.012 44.9853 30.516C45.3933 31.02 45.5973 31.676 45.5973 32.484C45.5973 32.652 45.5013 32.844 45.3093 33.06L41.8533 33C41.8693 33.64 41.9893 34.128 42.2133 34.464C42.4373 34.8 42.8133 34.968 43.3413 34.968ZM43.1013 30.756C42.7973 30.756 42.5133 30.816 42.2493 30.936C42.0653 31.32 41.9493 31.676 41.9013 32.004C42.5253 31.98 43.2333 31.964 44.0253 31.956C43.9853 31.156 43.6773 30.756 43.1013 30.756ZM50.286 29.76C51.086 29.76 51.666 29.956 52.026 30.348C52.386 30.74 52.566 31.288 52.566 31.992C52.566 32.696 52.526 33.648 52.446 34.848L53.394 34.956C53.394 35.284 53.302 35.632 53.118 36H50.13L50.022 35.34C50.398 35.188 50.746 35.068 51.066 34.98C51.042 34.06 51.018 33.288 50.994 32.664C50.97 32.032 50.91 31.604 50.814 31.38C50.718 31.156 50.506 31.044 50.178 31.044C49.682 31.044 49.238 31.132 48.846 31.308C48.838 31.652 48.814 32.216 48.774 33C48.742 33.776 48.722 34.392 48.714 34.848L49.65 34.956C49.65 35.284 49.558 35.632 49.374 36H46.386L46.278 35.34C46.678 35.188 47.038 35.068 47.358 34.98C47.35 34.5 47.322 33.836 47.274 32.988C47.234 32.14 47.21 31.512 47.202 31.104C46.906 31.072 46.59 31.012 46.254 30.924L46.314 30.06C46.874 29.908 47.506 29.832 48.21 29.832C48.298 29.888 48.418 30.06 48.57 30.348C48.842 30.212 49.174 30.08 49.566 29.952C49.958 29.824 50.198 29.76 50.286 29.76ZM55.1365 36.144L54.8725 36.132C54.8245 36.044 54.7605 35.88 54.6805 35.64C54.6005 35.4 54.5565 35.22 54.5485 35.1C54.5085 34.308 54.4645 32.936 54.4165 30.984H53.5765L53.6125 30.3C53.7965 30.172 54.0165 30.056 54.2725 29.952L55.2445 28.416C55.5565 28.448 55.8005 28.532 55.9765 28.668L55.9645 29.808C56.4685 29.824 56.9365 29.872 57.3685 29.952C57.3685 30.272 57.2685 30.616 57.0685 30.984H55.9525C55.9205 32.664 55.9005 33.924 55.8925 34.764C56.2125 34.796 56.6485 34.888 57.2005 35.04L57.1885 35.664C57.0525 35.752 56.7485 35.856 56.2765 35.976C55.8125 36.088 55.4325 36.144 55.1365 36.144ZM61.0484 34.968C61.3204 34.968 61.8724 34.78 62.7044 34.404C62.8804 34.66 63.0124 34.956 63.1004 35.292C62.6604 35.564 62.2284 35.776 61.8044 35.928C61.3884 36.072 61.0924 36.144 60.9164 36.144C59.9484 36.144 59.2124 35.876 58.7084 35.34C58.2124 34.804 57.9644 34.044 57.9644 33.06C57.9644 32.068 58.2124 31.272 58.7084 30.672C59.2044 30.064 59.9404 29.76 60.9164 29.76C61.6924 29.76 62.2844 30.012 62.6924 30.516C63.1004 31.02 63.3044 31.676 63.3044 32.484C63.3044 32.652 63.2084 32.844 63.0164 33.06L59.5604 33C59.5764 33.64 59.6964 34.128 59.9204 34.464C60.1444 34.8 60.5204 34.968 61.0484 34.968ZM60.8084 30.756C60.5044 30.756 60.2204 30.816 59.9564 30.936C59.7724 31.32 59.6564 31.676 59.6084 32.004C60.2324 31.98 60.9404 31.964 61.7324 31.956C61.6924 31.156 61.3844 30.756 60.8084 30.756ZM67.537 31.056C67.521 31.016 67.441 30.996 67.297 30.996C67.153 30.996 66.905 31.104 66.553 31.32C66.521 32.888 66.501 34.064 66.493 34.848L67.429 34.968C67.429 35.312 67.337 35.656 67.153 36H64.165L64.057 35.34C64.553 35.156 64.913 35.036 65.137 34.98L65.005 31.092C64.589 31.06 64.241 31 63.961 30.912L64.045 30.048C64.261 29.952 65.041 29.888 66.385 29.856C66.457 29.928 66.493 30.068 66.493 30.276C67.197 29.932 67.641 29.76 67.825 29.76C68.017 29.76 68.249 29.808 68.521 29.904C68.801 29.992 69.013 30.088 69.157 30.192V30.396C69.157 31.052 69.077 31.66 68.917 32.22C68.781 32.276 68.601 32.304 68.377 32.304C68.153 32.304 67.945 32.292 67.753 32.268C67.729 32.164 67.657 31.76 67.537 31.056Z" fill="#9BB3EF"/>
<rect y="62" width="76" height="14" rx="6" fill="#5F6B8B"/>
<rect x="84" y="76" width="76" height="33" rx="6" transform="rotate(-90 84 76)" fill="#5F6B8B"/>
<rect x="87" y="73" width="25" height="27" rx="6" transform="rotate(-90 87 73)" fill="url(#paint1_linear_66_11)"/>
<path d="M90.5 13C89.1193 13 88 11.8807 88 10.5C88 9.11929 89.1193 8 90.5 8L111.5 8C112.881 8 114 9.11929 114 10.5C114 11.8807 112.881 13 111.5 13L90.5 13Z" fill="#687492"/>
<path d="M111 18C110.448 18 110 17.5523 110 17C110 16.4477 110.448 16 111 16C111.552 16 112 16.4477 112 17C112 17.5523 111.552 18 111 18Z" fill="#9BB3EF"/>
<defs>
<linearGradient id="paint0_linear_66_11" x1="38" y1="8" x2="38" y2="56" gradientUnits="userSpaceOnUse">
<stop stop-color="#401E5A"/>
<stop offset="1" stop-color="#8C8C8C" stop-opacity="0.94"/>
</linearGradient>
<linearGradient id="paint1_linear_66_11" x1="112" y1="75.5" x2="90" y2="93.5" gradientUnits="userSpaceOnUse">
<stop stop-color="#757F9A"/>
<stop offset="1" stop-color="#5B688A"/>
</linearGradient>
</defs>
</svg>
